<svg viewBox="0 0 24 24" height="24" width="24" xmlns="http://www.w3.org/2000/svg" xml:space="preserve" style="fill-rule:evenodd;clip-rule:evenodd;stroke-linejoin:round;stroke-miterlimit:2"><path d="M15.736 22v-2.5h3.75v-15h-3.75V2h6.25v20h-6.25Zm-13.75 0V2h6.25v2.5h-3.75v15h3.75V22h-6.25ZM6.5 17.5V7.6c0-.303.107-.561.322-.776.215-.216.475-.324.778-.324h8.8c.302 0 .56.107.776.324.215.215.324.473.324.776v6.6c0 .303-.11.561-.324.777a1.058 1.058 0 0 1-.776.323H8.7l-2.2 2.2Zm5.037-5.401h.938c0-.322.028-.548.086-.681.056-.133.219-.328.485-.583.25-.245.434-.464.55-.658.117-.192.176-.425.176-.696a1.59 1.59 0 0 0-.461-1.146c-.308-.318-.746-.478-1.318-.478-.46 0-.845.13-1.15.384a1.974 1.974 0 0 0-.627.905l.84.359c.06-.174.161-.345.306-.514.144-.168.354-.252.631-.252.267 0 .475.073.624.22.15.147.225.331.225.555a.761.761 0 0 1-.175.492 4.408 4.408 0 0 1-.51.51c-.256.229-.422.439-.501.633-.08.192-.119.51-.119.95Zm.456 1.957a.63.63 0 0 0 .462-.192.628.628 0 0 0 .19-.46.629.629 0 0 0-.19-.462.629.629 0 0 0-.462-.19.628.628 0 0 0-.46.19.625.625 0 0 0-.192.462c0 .178.064.332.192.46a.629.629 0 0 0 .46.192Z"/></svg>