<?xml version="1.0" encoding="UTF-8" standalone="no"?>
<svg
   viewBox="0 0 24 24"
   version="1.1"
   id="svg1"
   sodipodi:docname="app.svg"
   inkscape:version="1.3.2 (091e20ef0f, 2023-11-25)"
   xmlns:inkscape="http://www.inkscape.org/namespaces/inkscape"
   xmlns:sodipodi="http://sodipodi.sourceforge.net/DTD/sodipodi-0.dtd"
   xmlns="http://www.w3.org/2000/svg"
   xmlns:svg="http://www.w3.org/2000/svg">
  <defs
     id="defs1" />
  <sodipodi:namedview
     id="namedview1"
     pagecolor="#ffffff"
     bordercolor="#000000"
     borderopacity="0.25"
     inkscape:showpageshadow="2"
     inkscape:pageopacity="0.0"
     inkscape:pagecheckerboard="0"
     inkscape:deskcolor="#d1d1d1"
     inkscape:zoom="8.7647368"
     inkscape:cx="-8.1006426"
     inkscape:cy="16.714706"
     inkscape:window-width="1920"
     inkscape:window-height="1011"
     inkscape:window-x="0"
     inkscape:window-y="0"
     inkscape:window-maximized="1"
     inkscape:current-layer="svg1" />
  <path
     d="M 2,3 H 8 V 5 H 4 v 14 h 4 v 2 H 2 V 3 m 20,0 v 18 h -6 v -2 h 4 V 5 H 16 V 3 Z"
     id="path1"
     sodipodi:nodetypes="cccccccccccccccccc"
     style="fill:#ffffff" />
  <path
     d="m 12.178494,6.8120868 c -3.2632681,0 -5.9332147,2.1359572 -5.9332147,4.7465722 0,1.245975 0.5933215,2.432618 1.6613001,3.263268 0,0.355992 -0.2373285,1.305307 -1.6613001,2.669946 0,0 2.0766252,0 3.8565897,-1.483304 0.652653,0.177997 1.364639,0.296661 2.076625,0.296661 3.263268,0 5.933214,-2.135957 5.933214,-4.746571 0,-2.610615 -2.669946,-4.7465722 -5.933214,-4.7465722 m 0.593321,7.1198572 h -1.186642 v -1.186643 h 1.186642 v 1.186643 m 1.067979,-2.966607 c -0.177997,0.237328 -0.415325,0.355993 -0.652654,0.474657 -0.177996,0.118665 -0.237329,0.177996 -0.29666,0.296661 -0.118665,0.118664 -0.118665,0.237329 -0.118665,0.415325 h -1.186642 c 0,-0.296661 0.05933,-0.474657 0.177996,-0.652654 0.118664,-0.118664 0.355993,-0.296661 0.652654,-0.474657 0.177996,-0.05933 0.296661,-0.177996 0.355992,-0.296661 0.05933,-0.118664 0.118665,-0.29666 0.118665,-0.415325 0,-0.177996 -0.05933,-0.29666 -0.177996,-0.4153246 -0.118665,-0.1186644 -0.296661,-0.1779965 -0.474658,-0.1779965 -0.177996,0 -0.296661,0.059332 -0.415325,0.1186643 -0.118664,0.059332 -0.177997,0.1779968 -0.177997,0.3559928 h -1.186642 c 0.05933,-0.415325 0.237329,-0.7713178 0.533989,-1.0086464 0.296661,-0.2373286 0.711986,-0.2966607 1.245975,-0.2966607 0.533989,0 1.008646,0.1186643 1.305307,0.3559929 0.296661,0.2373286 0.474658,0.5933214 0.474658,1.0086462 0.05933,0.237328 0,0.474657 -0.177997,0.711986 z"
     id="path1-5"
     style="stroke-width:0.593321;fill:#ffffff" />
</svg>
