<svg viewBox="0 0 24 24" height="24" width="24" xmlns="http://www.w3.org/2000/svg" xml:space="preserve" style="fill-rule:evenodd;clip-rule:evenodd;stroke-linejoin:round;stroke-miterlimit:2"><path d="M15 20v-2h3V6h-3V4h5v16h-5ZM4 20V4h5v2H6v12h3v2H4Zm3.612-3.6V8.48c0-.242.086-.449.258-.621a.846.846 0 0 1 .622-.259h7.04c.242 0 .449.086.621.259a.847.847 0 0 1 .259.621v5.28a.851.851 0 0 1-.259.622.847.847 0 0 1-.621.258h-6.16l-1.76 1.76Zm4.03-4.321h.75c0-.257.023-.438.069-.545.045-.106.175-.262.388-.466.2-.196.347-.371.44-.526a1.05 1.05 0 0 0 .141-.557c0-.357-.123-.663-.369-.917s-.597-.382-1.054-.382c-.369 0-.676.103-.92.307a1.58 1.58 0 0 0-.502.724l.672.287a1.27 1.27 0 0 1 .245-.411c.115-.135.283-.202.505-.202.213 0 .38.059.499.176.12.118.18.265.18.444a.61.61 0 0 1-.14.394c-.094.116-.23.252-.408.408-.205.183-.338.351-.401.506-.064.154-.095.408-.095.76Zm.365 1.566a.504.504 0 0 0 .369-.154.502.502 0 0 0 .153-.368.503.503 0 0 0-.153-.369.503.503 0 0 0-.369-.153.502.502 0 0 0-.368.153.5.5 0 0 0-.154.369.5.5 0 0 0 .154.368.503.503 0 0 0 .368.154Z" style="fill:#fff" transform="matrix(1.25 0 0 1.25 -3.014 -3)"/></svg>